<mxfile host="app.diagrams.net" modified="2022-07-27T10:40:39.427Z" agent="5.0 (Windows)" etag="4KfHhqY4w8wSfcGEZfNW" version="20.2.1" type="github">
  <diagram id="ctLMrAzlvmhTQf0iO98b" name="Seite-1">
    <mxGraphModel dx="1117" dy="993" grid="1" gridSize="10" guides="1" tooltips="1" connect="1" arrows="1" fold="1" page="1" pageScale="1" pageWidth="827" pageHeight="1169" math="0" shadow="0">
      <root>
        <mxCell id="0" />
        <mxCell id="1" parent="0" />
        <mxCell id="RzVn50UoisuIGFlfc8MU-1" value="&lt;div&gt;E-Mail System&lt;/div&gt;&lt;div&gt;&lt;br&gt;&lt;/div&gt;" style="shape=umlActor;verticalLabelPosition=bottom;verticalAlign=top;html=1;outlineConnect=0;" vertex="1" parent="1">
          <mxGeometry x="827" y="200" width="70" height="140" as="geometry" />
        </mxCell>
        <mxCell id="RzVn50UoisuIGFlfc8MU-4" value="" style="whiteSpace=wrap;html=1;aspect=fixed;" vertex="1" parent="1">
          <mxGeometry x="220" y="10" width="560" height="560" as="geometry" />
        </mxCell>
        <mxCell id="RzVn50UoisuIGFlfc8MU-5" value="Managment" style="shape=umlActor;verticalLabelPosition=bottom;verticalAlign=top;html=1;outlineConnect=0;" vertex="1" parent="1">
          <mxGeometry x="30" y="200" width="70" height="140" as="geometry" />
        </mxCell>
        <mxCell id="RzVn50UoisuIGFlfc8MU-7" value="&lt;font style=&quot;font-size: 22px;&quot;&gt;Log in&lt;/font&gt;" style="ellipse;whiteSpace=wrap;html=1;" vertex="1" parent="1">
          <mxGeometry x="280" y="50" width="200" height="90" as="geometry" />
        </mxCell>
        <mxCell id="RzVn50UoisuIGFlfc8MU-11" value="&lt;font style=&quot;font-size: 22px;&quot;&gt;Daten&lt;/font&gt;" style="ellipse;whiteSpace=wrap;html=1;" vertex="1" parent="1">
          <mxGeometry x="520" y="300" width="180" height="90" as="geometry" />
        </mxCell>
        <mxCell id="RzVn50UoisuIGFlfc8MU-12" value="&lt;font style=&quot;font-size: 14px;&quot;&gt;Authentifizierung&lt;/font&gt;" style="ellipse;whiteSpace=wrap;html=1;" vertex="1" parent="1">
          <mxGeometry x="600" y="20" width="120" height="90" as="geometry" />
        </mxCell>
        <mxCell id="RzVn50UoisuIGFlfc8MU-13" value="&lt;font style=&quot;font-size: 22px;&quot;&gt;Mail aufrufen&lt;br&gt;&lt;/font&gt;" style="ellipse;whiteSpace=wrap;html=1;" vertex="1" parent="1">
          <mxGeometry x="280" y="225" width="200" height="90" as="geometry" />
        </mxCell>
        <mxCell id="RzVn50UoisuIGFlfc8MU-16" value="" style="endArrow=none;html=1;rounded=0;fontSize=22;entryX=0;entryY=0.5;entryDx=0;entryDy=0;" edge="1" parent="1" target="RzVn50UoisuIGFlfc8MU-7">
          <mxGeometry width="50" height="50" relative="1" as="geometry">
            <mxPoint x="120" y="280" as="sourcePoint" />
            <mxPoint x="110" y="710" as="targetPoint" />
          </mxGeometry>
        </mxCell>
        <mxCell id="RzVn50UoisuIGFlfc8MU-17" value="" style="endArrow=none;html=1;rounded=0;fontSize=22;entryX=0;entryY=0.5;entryDx=0;entryDy=0;" edge="1" parent="1" target="RzVn50UoisuIGFlfc8MU-13">
          <mxGeometry width="50" height="50" relative="1" as="geometry">
            <mxPoint x="120" y="290" as="sourcePoint" />
            <mxPoint x="440" y="270" as="targetPoint" />
          </mxGeometry>
        </mxCell>
        <mxCell id="RzVn50UoisuIGFlfc8MU-18" value="&lt;font style=&quot;font-size: 22px;&quot;&gt;Rechnung&lt;/font&gt;" style="ellipse;whiteSpace=wrap;html=1;" vertex="1" parent="1">
          <mxGeometry x="290" y="400" width="200" height="90" as="geometry" />
        </mxCell>
        <mxCell id="RzVn50UoisuIGFlfc8MU-19" value="" style="endArrow=none;html=1;rounded=0;fontSize=22;entryX=0;entryY=0.5;entryDx=0;entryDy=0;" edge="1" parent="1" target="RzVn50UoisuIGFlfc8MU-18">
          <mxGeometry width="50" height="50" relative="1" as="geometry">
            <mxPoint x="120" y="300" as="sourcePoint" />
            <mxPoint x="440" y="270" as="targetPoint" />
          </mxGeometry>
        </mxCell>
        <mxCell id="RzVn50UoisuIGFlfc8MU-20" value="" style="endArrow=none;html=1;rounded=0;fontSize=22;exitX=1;exitY=0.5;exitDx=0;exitDy=0;" edge="1" parent="1" source="RzVn50UoisuIGFlfc8MU-11">
          <mxGeometry width="50" height="50" relative="1" as="geometry">
            <mxPoint x="770" y="350" as="sourcePoint" />
            <mxPoint x="820" y="270" as="targetPoint" />
          </mxGeometry>
        </mxCell>
        <mxCell id="RzVn50UoisuIGFlfc8MU-24" value="&lt;font style=&quot;font-size: 16px;&quot;&gt;&amp;lt;&amp;lt;include&amp;gt;&amp;gt;&lt;/font&gt;" style="edgeStyle=none;html=1;endArrow=open;verticalAlign=bottom;dashed=1;labelBackgroundColor=none;rounded=0;fontSize=22;exitX=-0.011;exitY=0.665;exitDx=0;exitDy=0;entryX=1;entryY=0.5;entryDx=0;entryDy=0;exitPerimeter=0;" edge="1" parent="1" source="RzVn50UoisuIGFlfc8MU-12" target="RzVn50UoisuIGFlfc8MU-7">
          <mxGeometry x="-0.0478" y="-17" width="160" relative="1" as="geometry">
            <mxPoint x="620" y="90" as="sourcePoint" />
            <mxPoint x="460" y="90" as="targetPoint" />
            <Array as="points" />
            <mxPoint as="offset" />
          </mxGeometry>
        </mxCell>
        <mxCell id="RzVn50UoisuIGFlfc8MU-25" value="&amp;lt;&amp;lt;extend&amp;gt;&amp;gt;" style="edgeStyle=none;html=1;startArrow=open;endArrow=none;startSize=12;verticalAlign=bottom;dashed=1;labelBackgroundColor=none;rounded=0;fontSize=16;exitX=1.001;exitY=0.403;exitDx=0;exitDy=0;entryX=0.311;entryY=1.025;entryDx=0;entryDy=0;entryPerimeter=0;exitPerimeter=0;" edge="1" parent="1" source="RzVn50UoisuIGFlfc8MU-13" target="RzVn50UoisuIGFlfc8MU-12">
          <mxGeometry width="160" relative="1" as="geometry">
            <mxPoint x="330" y="300" as="sourcePoint" />
            <mxPoint x="490" y="300" as="targetPoint" />
            <Array as="points">
              <mxPoint x="640" y="110" />
            </Array>
          </mxGeometry>
        </mxCell>
        <mxCell id="RzVn50UoisuIGFlfc8MU-26" value="&amp;lt;&amp;lt;extend&amp;gt;&amp;gt;" style="edgeStyle=none;html=1;startArrow=open;endArrow=none;startSize=12;verticalAlign=bottom;dashed=1;labelBackgroundColor=none;rounded=0;fontSize=16;entryX=0;entryY=1;entryDx=0;entryDy=0;exitX=0.025;exitY=0.713;exitDx=0;exitDy=0;exitPerimeter=0;" edge="1" parent="1" source="RzVn50UoisuIGFlfc8MU-11">
          <mxGeometry x="-0.13" y="43" width="160" relative="1" as="geometry">
            <mxPoint x="630" y="410" as="sourcePoint" />
            <mxPoint x="470" y="410" as="targetPoint" />
            <mxPoint x="-1" as="offset" />
          </mxGeometry>
        </mxCell>
        <mxCell id="RzVn50UoisuIGFlfc8MU-27" value="&amp;lt;&amp;lt;extend&amp;gt;&amp;gt;" style="edgeStyle=none;html=1;startArrow=open;endArrow=none;startSize=12;verticalAlign=bottom;dashed=1;labelBackgroundColor=none;rounded=0;fontSize=16;exitX=0;exitY=0.5;exitDx=0;exitDy=0;entryX=1;entryY=1;entryDx=0;entryDy=0;" edge="1" parent="1" source="RzVn50UoisuIGFlfc8MU-11" target="RzVn50UoisuIGFlfc8MU-13">
          <mxGeometry x="0.302" y="23" width="160" relative="1" as="geometry">
            <mxPoint x="490" y="300" as="sourcePoint" />
            <mxPoint x="330" y="300" as="targetPoint" />
            <mxPoint as="offset" />
          </mxGeometry>
        </mxCell>
      </root>
    </mxGraphModel>
  </diagram>
</mxfile>
